<?xml version="1.0" standalone="no"?>
<!DOCTYPE svg PUBLIC "-//W3C//DTD SVG 20010904//EN"
 "http://www.w3.org/TR/2001/REC-SVG-20010904/DTD/svg10.dtd">
<svg version="1.0" xmlns="http://www.w3.org/2000/svg"
 width="512.000000pt" height="512.000000pt" viewBox="0 0 512.000000 512.000000"
 preserveAspectRatio="xMidYMid meet">
<metadata>
Created by potrace 1.14, written by Peter Selinger 2001-2017
</metadata>
<g transform="translate(0.000000,512.000000) scale(0.100000,-0.100000)"
fill="#000000" stroke="none">
<path d="M1707 5114 c-1 -1 -29 -4 -62 -7 -139 -13 -318 -93 -420 -187 -27
-25 -75 -61 -105 -79 -55 -33 -95 -65 -205 -171 -134 -127 -225 -261 -318
-470 -21 -47 -76 -201 -93 -260 -20 -73 -54 -254 -54 -292 0 -27 -3 -48 -7
-49 -77 -7 -185 -86 -225 -163 -18 -36 -24 -60 -32 -143 -5 -44 33 -100 95
-141 27 -17 49 -37 49 -42 0 -6 -14 -24 -30 -40 -17 -16 -30 -35 -31 -42 0 -7
-2 -20 -4 -29 -4 -23 24 -79 57 -111 33 -33 112 -69 183 -83 109 -23 180 -32
300 -41 50 -4 101 -8 115 -9 14 -2 31 -3 38 -4 21 -2 12 -103 -13 -153 -39
-77 -162 -181 -280 -237 -78 -37 -191 -109 -245 -156 -76 -65 -198 -195 -233
-248 -36 -55 -106 -192 -111 -219 -1 -7 -8 -31 -14 -53 -15 -54 -23 -106 -27
-179 -2 -34 -7 -86 -12 -116 -4 -30 -8 -122 -7 -205 1 -177 13 -236 81 -375
42 -85 59 -107 160 -207 63 -62 118 -113 123 -113 6 0 24 -13 41 -29 26 -25
248 -142 359 -189 19 -8 46 -21 60 -27 41 -20 227 -72 335 -94 55 -11 150 -29
210 -41 61 -12 119 -24 130 -26 11 -3 35 -7 54 -10 18 -3 43 -8 55 -10 11 -3
41 -7 66 -9 25 -3 56 -7 70 -10 14 -3 59 -8 100 -11 41 -3 77 -7 81 -9 26 -17
589 -25 784 -12 142 10 360 32 415 42 14 2 45 7 70 10 90 12 283 49 345 67 22
6 45 12 51 14 36 7 256 83 360 124 226 89 590 280 660 345 6 5 22 17 35 25 31
20 269 257 269 268 0 5 11 22 25 38 14 16 25 35 25 42 0 6 4 12 9 12 12 0 99
191 112 247 17 71 13 245 -7 348 -9 50 -18 97 -19 105 -1 8 -5 22 -8 30 -2 8
-17 53 -32 100 -15 47 -44 121 -65 165 -20 44 -50 109 -66 145 -55 124 -192
388 -259 498 -6 9 -23 40 -39 67 -52 88 -219 344 -248 380 -5 6 -22 28 -38 50
-61 81 -74 97 -107 130 -39 39 -120 72 -190 79 -74 7 -145 -22 -371 -147 -196
-109 -331 -180 -342 -182 -3 0 -10 -4 -17 -8 -6 -4 -40 -7 -75 -6 -71 1 -150
-5 -328 -26 -19 -2 -59 -7 -87 -10 -29 -4 -53 -3 -53 1 0 4 35 50 78 103 203
252 278 381 322 556 18 73 22 119 23 245 0 86 -5 171 -11 190 -18 60 -51 175
-54 185 -6 26 -83 174 -125 238 -69 105 -229 261 -348 340 -157 103 -344 183
-523 222 -98 22 -101 23 -152 40 -26 9 -52 15 -56 14 -5 -1 -20 1 -34 4 -23 7
-157 16 -163 11z"/>
</g>
</svg>
